<svg xmlns="http://www.w3.org/2000/svg" version="1.1" viewBox="0 0 2090 1575" style="background: #ffffff" width="2090" height="1575"><defs joint-selector="defs" /><g joint-selector="layers" transform="matrix(1,0,0,1,0,0)"><g /><g><!--z-index:1--><!--z-index:2--><!--z-index:3--><!--z-index:4--><!--z-index:5--><!--z-index:6--><!--z-index:7--><!--z-index:8--><!--z-index:9--><!--z-index:10--><!--z-index:11--><!--z-index:12--><!--z-index:13--><!--z-index:14--><g id="j_21" transform="translate(20,1531)"><g id="v-236"><text id="v-237" font-size="24px" xml:space="preserve" y="0.8em" font-weight="normal" text-anchor="start" fill="#444444" pointer-events="none" display="block" font-family="Open Sans, Tahoma, Arial" /></g></g><!--z-index:15--><g id="j_20" transform="translate(20,1485)"><g id="v-234"><text id="v-235" font-size="36px" xml:space="preserve" y="0.8em" font-weight="normal" text-anchor="start" fill="#444444" pointer-events="none" display="block" font-family="Open Sans, Tahoma, Arial" /></g></g><!--z-index:16--><g id="j_22" transform="translate(880,638)" style=""><g id="v-244" style="opacity: 1;"><rect id="v-245" rx="20" ry="20" stroke-width="1" pointer-events="visiblePainted" fill="#ffffff" stroke="#004df2" stroke-dasharray="" width="450" height="300" /><text id="v-246" font-size="33.599999999999994px" xml:space="preserve" y="86.9" font-weight="bold" text-anchor="middle" pointer-events="visible" font-family="Open Sans, Tahoma, Arial" fill="#003ab5" dominant-baseline="hanging" transform="matrix(1,0,0,1,225,0)"><tspan dy="0">Deckhouse Stronghold</tspan></text><text id="v-247" font-size="16.799999999999997px" xml:space="preserve" y="128.5" text-anchor="middle" font-family="Open Sans, Tahoma, Arial" fill="#003ab5" dominant-baseline="hanging" transform="matrix(1,0,0,1,225,0)" style="display: block;"><tspan dy="0">[Software System]</tspan></text><text id="v-248" font-size="24px" xml:space="preserve" y="160.3" text-anchor="middle" font-family="Open Sans, Tahoma, Arial" fill="#003ab5" dominant-baseline="hanging" transform="matrix(1,0,0,1,225,0)" style="display: block;"><tspan dy="0">Platform for for secrets</tspan><tspan dy="1.2em" x="0">management</tspan></text><image id="v-250" /></g></g><!--z-index:17--><g id="j_23" transform="translate(70,9)" style=""><g id="v-254" style="opacity: 1;"><rect x="0" y="160" width="400" height="240" rx="70" id="v-256" stroke-width="2" pointer-events="visiblePainted" fill="#4c6ac3" stroke="#4c6ac3" stroke-dasharray="" /><circle cx="200" cy="88.88888888888889" r="88.88888888888889" id="v-255" stroke-width="2" pointer-events="visiblePainted" fill="#4c6ac3" stroke="#4c6ac3" stroke-dasharray="" /><line x1="80" y1="266.6666666666667" x2="80" y2="400" id="v-262" stroke="#4c6ac3" stroke-width="1" stroke-dasharray="" /><line x1="320" y1="266.6666666666667" x2="320" y2="400" id="v-263" stroke="#4c6ac3" stroke-width="1" stroke-dasharray="" /><text id="v-257" font-size="33.599999999999994px" xml:space="preserve" y="202.5" font-weight="bold" text-anchor="middle" pointer-events="visible" font-family="Open Sans, Tahoma, Arial" fill="#ffffff" dominant-baseline="hanging" transform="matrix(1,0,0,1,200,0)"><tspan dy="0">User </tspan></text><text id="v-258" font-size="16.799999999999997px" xml:space="preserve" y="244.1" text-anchor="middle" font-family="Open Sans, Tahoma, Arial" fill="#ffffff" dominant-baseline="hanging" transform="matrix(1,0,0,1,200,0)" style="display: block;"><tspan dy="0">[Person]</tspan></text><text id="v-259" font-size="24px" xml:space="preserve" y="275.9" text-anchor="middle" font-family="Open Sans, Tahoma, Arial" fill="#ffffff" dominant-baseline="hanging" transform="matrix(1,0,0,1,200,0)" style="display: block;"><tspan dy="0">as well as a developer,</tspan><tspan dy="1.2em" x="0">administrator and security</tspan><tspan dy="1.2em" x="0">engineer</tspan></text><image id="v-261" /></g></g><!--z-index:18--><g id="j_24" transform="translate(880,1184)" style=""><g id="v-270" style="opacity: 1;"><rect id="v-271" rx="20" ry="20" stroke-width="1" pointer-events="visiblePainted" fill="#ededed" stroke="#696a6d" stroke-dasharray="" width="450" height="300" /><text id="v-272" font-size="33.599999999999994px" xml:space="preserve" y="93.54" font-weight="bold" text-anchor="middle" pointer-events="visible" font-family="Open Sans, Tahoma, Arial" fill="#000000" dominant-baseline="hanging" transform="matrix(1,0,0,1,225,0)"><tspan dy="0">External authentication</tspan><tspan dy="1.2em" x="0">providers</tspan></text><text id="v-274" font-size="24px" xml:space="preserve" y="182.45999999999998" text-anchor="middle" font-family="Open Sans, Tahoma, Arial" fill="#000000" dominant-baseline="hanging" transform="matrix(1,0,0,1,225,0)" style="display: block;"><tspan dy="0">OIDC, LDAP, GitLab, GitHub</tspan></text><image id="v-276" /></g></g><!--z-index:19--><g id="j_25" transform="translate(50,638)" style=""><g id="v-283" style="opacity: 1;"><rect id="v-284" rx="20" ry="20" stroke-width="1" pointer-events="visiblePainted" fill="#ededed" stroke="#696a6d" stroke-dasharray="" width="450" height="300" /><text id="v-285" font-size="33.599999999999994px" xml:space="preserve" y="99.30000000000001" font-weight="bold" text-anchor="middle" pointer-events="visible" font-family="Open Sans, Tahoma, Arial" fill="#000000" dominant-baseline="hanging" transform="matrix(1,0,0,1,225,0)"><tspan dy="0">Deckhouse CLI (d8)</tspan></text><text id="v-287" font-size="24px" xml:space="preserve" y="147.9" text-anchor="middle" font-family="Open Sans, Tahoma, Arial" fill="#000000" dominant-baseline="hanging" transform="matrix(1,0,0,1,225,0)" style="display: block;"><tspan dy="0">Command-line utility for working</tspan><tspan dy="1.2em" x="0">with Deckhouse product line</tspan></text><image id="v-289" /></g></g><!--z-index:20--><g id="j_26" transform="translate(1590,638)" style=""><g id="v-296" style="opacity: 1;"><rect id="v-297" rx="20" ry="20" stroke-width="1" pointer-events="visiblePainted" fill="#ededed" stroke="#696a6d" stroke-dasharray="" width="450" height="300" /><text id="v-298" font-size="33.599999999999994px" xml:space="preserve" y="64.74000000000001" font-weight="bold" text-anchor="middle" pointer-events="visible" font-family="Open Sans, Tahoma, Arial" fill="#000000" dominant-baseline="hanging" transform="matrix(1,0,0,1,225,0)"><tspan dy="0">External systems used</tspan><tspan dy="1.2em" x="0">secrets</tspan></text><text id="v-300" font-size="24px" xml:space="preserve" y="153.66" text-anchor="middle" font-family="Open Sans, Tahoma, Arial" fill="#000000" dominant-baseline="hanging" transform="matrix(1,0,0,1,225,0)" style="display: block;"><tspan dy="0">PostgreSQL, MySQL, MSSQL,</tspan><tspan dy="1.2em" x="0">Consul, ssh, rabbitmq,</tspan><tspan dy="1.2em" x="0">openldap/ldap, and etc</tspan></text><image id="v-302" /></g></g><!--z-index:21--><g id="j_27" transform="translate(1590,9)" style=""><g id="v-306" style="opacity: 1;"><rect id="v-307" rx="20" ry="20" stroke-width="1" pointer-events="visiblePainted" fill="#ededed" stroke="#696a6d" stroke-dasharray="" width="450" height="300" /><text id="v-308" font-size="33.599999999999994px" xml:space="preserve" y="113.04" font-weight="bold" text-anchor="middle" pointer-events="visible" font-family="Open Sans, Tahoma, Arial" fill="#000000" dominant-baseline="hanging" transform="matrix(1,0,0,1,225,0)"><tspan dy="0">Secondary Stronghold</tspan><tspan dy="1.2em" x="0">instance</tspan></text><image id="v-312" /></g></g><!--z-index:22--><g id="j_28"><path stroke="#000000" d="M 1105 938 L 1105 1184" id="v-325" stroke-width="1" stroke-dasharray="" fill="none" style="opacity: 1;" /><path fill="black" stroke="black" d="M 0 0 0 0" transform="matrix(6.123233995736766e-17,1,-1,6.123233995736766e-17,1105,938)" /><path fill="#000000" stroke="#000000" d="M 10 0 L 0 5 L 10 10 z" id="v-327" transform="matrix(-1.8369701987210297e-16,-1,1,-1.8369701987210297e-16,1100,1184)" style="opacity: 1;" /><path d="M 1105 938 L 1105 1184" id="v-326" fill="none" style="cursor: default;" /><g><g id="v-319" label-idx="0" cursor="move" transform="matrix(1,0,0,1,1105,1061)" style="cursor: default; opacity: 1;"><rect joint-selector="rect" id="v-322" fill="#ffffff" rx="3" ry="3" pointer-events="none" width="188.73324584960938" height="120.43990707397461" transform="matrix(1,0,0,1,-94.4,-60.2)" /><text joint-selector="text" id="v-321" font-size="24px" xml:space="preserve" y="0.8em" fill="#000000" text-anchor="middle" pointer-events="none" font-family="Open Sans, Tahoma, Arial" font-weight="normal" transform="matrix(1,0,0,1,0,-53.2)"><tspan dy="0">Forwards</tspan><tspan dy="1.2em" x="0">authentication</tspan><tspan dy="1.2em" x="0">requests to</tspan><tspan dy="1.2em" x="0">external systems</tspan></text></g><g id="v-320" label-idx="1" cursor="move" transform="matrix(1,0,0,1,1095,1116.199951171875)" style="cursor: default; opacity: 1;"><text joint-selector="text" id="v-323" fill="#000000" font-size="14" text-anchor="middle" pointer-events="none" /></g></g></g><!--z-index:23--><g id="j_29"><path stroke="#000000" d="M 1274 638 L 1646 309" id="v-342" stroke-width="1" stroke-dasharray="" fill="none" style="opacity: 1;" /><path fill="black" stroke="black" d="M 0 0 0 0" transform="matrix(0.748506971630622,-0.6631269210493231,0.6631269210493231,0.748506971630622,1274.3199462890625,638)" /><path fill="#000000" stroke="#000000" d="M 10 0 L 0 5 L 10 10 z" id="v-344" transform="matrix(-0.7485069716306221,0.663126921049323,-0.663126921049323,-0.7485069716306221,1648.9956694633997,312.74254356345335)" style="opacity: 1;" /><path d="M 1274 638 L 1646 309" id="v-343" fill="none" style="cursor: default;" /><g><g id="v-336" label-idx="0" cursor="move" transform="matrix(1,0,0,1,1460,473.5)" style="cursor: default; opacity: 1;"><rect joint-selector="rect" id="v-339" fill="#ffffff" rx="3" ry="3" pointer-events="none" width="186.23753356933594" height="91.6399040222168" transform="matrix(1,0,0,1,-93.1,-45.8)" /><text joint-selector="text" id="v-338" font-size="24px" xml:space="preserve" y="0.8em" fill="#000000" text-anchor="middle" pointer-events="none" font-family="Open Sans, Tahoma, Arial" font-weight="normal" transform="matrix(1,0,0,1,0,-38.8)"><tspan dy="0">Performs</tspan><tspan dy="1.2em" x="0">Performance/DR</tspan><tspan dy="1.2em" x="0">replication</tspan></text></g><g id="v-337" label-idx="1" cursor="move" transform="matrix(1,0,0,1,1450,514.2999877929688)" style="cursor: default; opacity: 1;"><text joint-selector="text" id="v-340" fill="#000000" font-size="14" text-anchor="middle" pointer-events="none" /></g></g></g><!--z-index:24--><g id="j_30"><path stroke="#000000" d="M 500 788 L 880 788" id="v-359" stroke-width="1" stroke-dasharray="" fill="none" style="opacity: 1;" /><path fill="black" stroke="black" d="M 0 0 0 0" transform="matrix(1,0,0,1,500,788)" /><path fill="#000000" stroke="#000000" d="M 10 0 L 0 5 L 10 10 z" id="v-361" transform="matrix(-1,1.2246467991473532e-16,-1.2246467991473532e-16,-1,880,793)" style="opacity: 1;" /><path d="M 500 788 L 880 788" id="v-360" fill="none" style="cursor: default;" /><g><g id="v-353" label-idx="0" cursor="move" transform="matrix(1,0,0,1,690,788)" style="cursor: default; opacity: 1;"><rect joint-selector="rect" id="v-356" fill="#ffffff" rx="3" ry="3" pointer-events="none" width="279.1517333984375" height="91.6399040222168" transform="matrix(1,0,0,1,-139.6,-45.8)" /><text joint-selector="text" id="v-355" font-size="24px" xml:space="preserve" y="0.8em" fill="#000000" text-anchor="middle" pointer-events="none" font-family="Open Sans, Tahoma, Arial" font-weight="normal" transform="matrix(1,0,0,1,0,-38.8)"><tspan dy="0">Performs API requests to</tspan><tspan dy="1.2em" x="0">manage the secret</tspan><tspan dy="1.2em" x="0">lifecycle</tspan></text></g><g id="v-354" label-idx="1" cursor="move" transform="matrix(1,0,0,1,680,828.7999877929688)" style="cursor: default; opacity: 1;"><text joint-selector="text" id="v-357" fill="#000000" font-size="14" text-anchor="middle" pointer-events="none" /></g></g></g><!--z-index:25--><g id="j_31"><path stroke="#000000" d="M 470 249 L 815 317 C 821.6666666666666 318.3333333333333 826.6666666666666 322 830 328 L 1015 638" id="v-377" stroke-width="1" stroke-dasharray="" fill="none" style="opacity: 1;" /><path fill="black" stroke="black" d="M 0 0 0 0" transform="matrix(0.9809192822607938,0.1944154358300005,-0.1944154358300005,0.9809192822607938,470,248.63999938964844)" /><path fill="#000000" stroke="#000000" d="M 10 0 L 0 5 L 10 10 z" id="v-379" transform="matrix(-0.5126144555526289,-0.8586189026328747,0.8586189026328747,-0.5126144555526289,1011.1568796200676,640.563075970615)" style="opacity: 1;" /><path d="M 470 249 L 815 317 C 821.6666666666666 318.3333333333333 826.6666666666666 322 830 328 L 1015 638" id="v-378" fill="none" style="cursor: default;" /><g><g id="v-371" label-idx="0" cursor="move" transform="matrix(1,0,0,1,827.1875,323.9375)" style="cursor: default; opacity: 1;"><rect joint-selector="rect" id="v-374" fill="#ffffff" rx="3" ry="3" pointer-events="none" width="161.15765380859375" height="120.43990707397461" transform="matrix(1,0,0,1,-80.6,-60.2)" /><text joint-selector="text" id="v-373" font-size="24px" xml:space="preserve" y="0.8em" fill="#000000" text-anchor="middle" pointer-events="none" font-family="Open Sans, Tahoma, Arial" font-weight="normal" transform="matrix(1,0,0,1,0,-53.2)"><tspan dy="0">Manages</tspan><tspan dy="1.2em" x="0">Deckhoue</tspan><tspan dy="1.2em" x="0">Stronghold via</tspan><tspan dy="1.2em" x="0">web interface</tspan></text></g><g id="v-372" label-idx="1" cursor="move" transform="matrix(1,0,0,1,817.1875,379.13751220703125)" style="cursor: default; opacity: 1;"><text joint-selector="text" id="v-375" fill="#000000" font-size="14" text-anchor="middle" pointer-events="none" /></g></g></g><!--z-index:26--><g id="j_32"><path stroke="#000000" d="M 272 409 L 274 638" id="v-394" stroke-width="1" stroke-dasharray="" fill="none" style="opacity: 1;" /><path fill="black" stroke="black" d="M 0 0 0 0" transform="matrix(0.008602303697039496,0.9999629995010335,-0.9999629995010335,0.008602303697039496,271.7300109863281,409)" /><path fill="#000000" stroke="#000000" d="M 10 0 L 0 5 L 10 10 z" id="v-396" transform="matrix(-0.008602436850166987,-0.9999629983555586,0.9999629983555586,-0.008602436850166987,268.70017961434803,638.0430102814973)" style="opacity: 1;" /><path d="M 272 409 L 274 638" id="v-395" fill="none" style="cursor: default;" /><g><g id="v-388" label-idx="0" cursor="move" transform="matrix(1,0,0,1,273,523.5)" style="cursor: default; opacity: 1;"><rect joint-selector="rect" id="v-391" fill="#ffffff" rx="3" ry="3" pointer-events="none" width="238.72935485839844" height="91.6399040222168" transform="matrix(1,0,0,1,-119.4,-45.8)" /><text joint-selector="text" id="v-390" font-size="24px" xml:space="preserve" y="0.8em" fill="#000000" text-anchor="middle" pointer-events="none" font-family="Open Sans, Tahoma, Arial" font-weight="normal" transform="matrix(1,0,0,1,0,-38.8)"><tspan dy="0">Manages Deckhouse</tspan><tspan dy="1.2em" x="0">Stronghold via the d8</tspan><tspan dy="1.2em" x="0">command-line utility</tspan></text></g><g id="v-389" label-idx="1" cursor="move" transform="matrix(1,0,0,1,263,564.2999877929688)" style="cursor: default; opacity: 1;"><text joint-selector="text" id="v-392" fill="#000000" font-size="14" text-anchor="middle" pointer-events="none" /></g></g></g><!--z-index:27--><g id="j_33"><path stroke="#000000" d="M 1330 788 L 1590 788" id="v-411" stroke-width="1" stroke-dasharray="" fill="none" style="opacity: 1;" /><path fill="black" stroke="black" d="M 0 0 0 0" transform="matrix(1,0,0,1,1330,788)" /><path fill="#000000" stroke="#000000" d="M 10 0 L 0 5 L 10 10 z" id="v-413" transform="matrix(-1,1.2246467991473532e-16,-1.2246467991473532e-16,-1,1590,793)" style="opacity: 1;" /><path d="M 1330 788 L 1590 788" id="v-412" fill="none" style="cursor: default;" /><g><g id="v-405" label-idx="0" cursor="move" transform="matrix(1,0,0,1,1460,788)" style="cursor: default; opacity: 1;"><rect joint-selector="rect" id="v-408" fill="#ffffff" rx="3" ry="3" pointer-events="none" width="176.70472717285156" height="62.839900970458984" transform="matrix(1,0,0,1,-88.4,-31.4)" /><text joint-selector="text" id="v-407" font-size="24px" xml:space="preserve" y="0.8em" fill="#000000" text-anchor="middle" pointer-events="none" font-family="Open Sans, Tahoma, Arial" font-weight="normal" transform="matrix(1,0,0,1,0,-24.4)"><tspan dy="0">Creates and</tspan><tspan dy="1.2em" x="0">updates secrets</tspan></text></g><g id="v-406" label-idx="1" cursor="move" transform="matrix(1,0,0,1,1450,814.4000244140625)" style="cursor: default; opacity: 1;"><text joint-selector="text" id="v-409" fill="#000000" font-size="14" text-anchor="middle" pointer-events="none" /></g></g></g><!--z-index:28--></g><g /><g /><g /></g></svg>